<svg xmlns="http://www.w3.org/2000/svg" viewBox="0 0 559 267"><defs><style>.cls-1,.cls-14{fill:#999;}.cls-1,.cls-20,.cls-4,.cls-5,.cls-6{stroke:#000;}.cls-1,.cls-10,.cls-20,.cls-4,.cls-5,.cls-6{stroke-miterlimit:10;}.cls-2{fill:#630;}.cls-3{fill:#300;}.cls-12,.cls-20,.cls-4,.cls-5{fill:#fff;}.cls-4,.cls-6{stroke-width:0.25px;}.cls-10,.cls-5{stroke-width:0.5px;}.cls-6{fill:#c33;}.cls-7{fill:#ff9;}.cls-8{fill:#ccc;}.cls-9{fill:#333;}.cls-10{stroke:#666;}.cls-11{fill:#ffc;}.cls-13{fill:#666;}.cls-15{fill:#5f6573;}.cls-16{fill:#535667;}.cls-17{fill:#848e9a;}.cls-18{fill:#59606c;}.cls-19{fill:#5e6472;}</style></defs><title>plan_complet_echelle</title><g id="Calque_2" data-name="Calque 2"><rect class="cls-1" x="0.5" y="0.5" width="558" height="256"/></g><g id="Table"><path class="cls-2" d="M295.472,10.4V62.281l-3.363.4a190.231,190.231,0,0,1-44.745,0l-3.363-.4V10.4l8.886-.79a190.345,190.345,0,0,1,33.7,0Z"/></g><g id="Fauteuils"><g id="Fauteuil_2"><path class="cls-3" d="M240.842,47.349V52.97a.725.725,0,0,1-.725.725H203.383a.725.725,0,0,1-.725-.725V15.53a.725.725,0,0,1,.725-.725h36.734a.725.725,0,0,1,.725.725v5.621a.725.725,0,0,1-.725.725h-30.37a.725.725,0,0,0-.725.725V45.9a.725.725,0,0,0,.725.725h30.37A.725.725,0,0,1,240.842,47.349Z"/><path class="cls-2" d="M241.857,21.876H209.3a.28.28,0,0,0-.28.28V46.345a.28.28,0,0,0,.28.28h32.555a1.106,1.106,0,0,0,1.106-1.106V22.982A1.106,1.106,0,0,0,241.857,21.876Z"/></g><g id="Fauteuil_1"><path class="cls-3" d="M45.842,104.349v5.621a.725.725,0,0,1-.725.725H8.383a.725.725,0,0,1-.725-.725V72.53a.725.725,0,0,1,.725-.725H45.117a.725.725,0,0,1,.725.725v5.621a.725.725,0,0,1-.725.725H14.747a.725.725,0,0,0-.725.725v23.3a.725.725,0,0,0,.725.725h30.37A.725.725,0,0,1,45.842,104.349Z"/><path class="cls-2" d="M46.857,78.876H14.3a.28.28,0,0,0-.28.28v24.189a.28.28,0,0,0,.28.28H46.857a1.106,1.106,0,0,0,1.106-1.106V79.982A1.106,1.106,0,0,0,46.857,78.876Z"/></g><g id="Fauteuil_1-2" data-name="Fauteuil_1"><path class="cls-3" d="M95.175,155.374l4.088-3.858a.725.725,0,0,1,1.025.03L125.5,178.263a.725.725,0,0,1-.03,1.025l-27.231,25.7a.725.725,0,0,1-1.025-.03L72,178.237a.725.725,0,0,1,.03-1.025l4.088-3.858a.725.725,0,0,1,1.025.03l20.843,22.088a.725.725,0,0,0,1.025.03l16.945-15.99a.725.725,0,0,0,.03-1.025L95.145,156.4A.725.725,0,0,1,95.175,155.374Z"/><path class="cls-2" d="M75.951,172.119,98.293,195.8a.28.28,0,0,0,.4.011l17.593-16.6a.28.28,0,0,0,.011-.4L93.951,155.133a1.106,1.106,0,0,0-1.564-.045L76,170.555A1.106,1.106,0,0,0,75.951,172.119Z"/></g></g><g id="TV"><rect class="cls-2" y="27" width="61" height="12" rx="4.581" ry="4.581" transform="translate(-14.401 31.232) rotate(-45)"/><rect x="5.398" y="30.525" width="50.205" height="4.95" transform="translate(-14.401 31.232) rotate(-45)"/><path d="M26,31V41a1,1,0,0,0,1,1h0a1,1,0,0,0,1-1V32a1,1,0,0,1,1-1h9a1,1,0,0,0,1-1h0a1,1,0,0,0-1-1H27a1,1,0,0,0-1,1Z"/></g><g id="Lit"><g id="Lit-2" data-name="Lit"><rect class="cls-4" x="279" y="181" width="104" height="54"/><path class="cls-5" d="M379.337,185.606l-6.421.905a32.252,32.252,0,0,1-8.756.036l-7.092-.941-.8,13.047a145.444,145.444,0,0,0,.02,18.06L357.068,229l7.221-.958a31.3,31.3,0,0,1,8.5.035l6.55.924c1.483-6.673,1.35-5.783,1.35-22.078C380.687,190.174,379.337,185.606,379.337,185.606Z"/><path class="cls-6" d="M278.6,181a5.8,5.8,0,0,0-5.6,5.977v42.046A5.8,5.8,0,0,0,278.6,235H354l-18-49,3-5"/></g></g><g id="plan_entre_2"><polygon class="cls-7" points="151 235 177.5 207.5 202 208 229 235 226 238 155 238 151 235"/></g><g id="Biblio"><rect id="biblio_chambre" class="cls-8" x="368" y="110" width="17" height="51"/><rect id="petite_biblio" class="cls-2" x="351" width="13" height="35" transform="translate(340 375) rotate(-90)"/></g><g id="Plaque_cuisson"><polygon class="cls-9" points="202 208 229.184 235 258 207.481 230.272 181 202 208"/><ellipse id="grosse" class="cls-10" cx="218.138" cy="208.779" rx="8.731" ry="8.567"/><ellipse id="moyenne" class="cls-10" cx="231.412" cy="196.184" rx="6.35" ry="6.231"/><ellipse id="petite_1" class="cls-10" cx="243.281" cy="205.246" rx="5.291" ry="5.192"/><ellipse id="petite_2" class="cls-10" cx="225.321" cy="222.87" rx="5.291" ry="5.192"/><ellipse id="petite_3" class="cls-10" cx="234.301" cy="214.058" rx="5.291" ry="5.192"/></g><g id="Meuble_cuisine_1"><g id="porte_1"><rect class="cls-11" x="169" y="219" width="20.588" height="0.704"/><rect class="cls-7" x="169" y="219.352" width="20.588" height="0.352"/></g><g id="porte_2"><rect class="cls-11" x="189.588" y="219" width="21.412" height="0.704"/><rect class="cls-7" x="189.588" y="219.352" width="21.412" height="0.352"/></g><rect class="cls-11" x="169" y="219.704" width="42" height="18.296"/></g><g id="plan_travail_cuisine"><g id="porte_plan_2"><rect class="cls-11" x="227" y="145.157" width="1" height="32.843"/><rect class="cls-7" x="227.5" y="145.157" width="0.5" height="32.843"/></g><g id="porte_plan_1"><rect class="cls-11" x="227" y="111" width="1" height="34.157"/><rect class="cls-7" x="227.5" y="111" width="0.5" height="34.157"/></g><path id="plan" class="cls-7" d="M228.406,178.406l27.113,27.113a1.387,1.387,0,0,0,1.962,0l3.113-3.113a1.387,1.387,0,0,0,.406-.981V110.387A1.387,1.387,0,0,0,259.613,109h-28.97A2.643,2.643,0,0,0,228,111.643v65.783A1.387,1.387,0,0,0,228.406,178.406Z"/><g id="Robinet_cuisine"><rect class="cls-8" x="233" y="130" width="24" height="21.517" rx="1.158" ry="1.158"/><path class="cls-12" d="M234.655,132.448v16.622a.775.775,0,0,0,.757.793h15.866a.775.775,0,0,0,.757-.793V132.448a.775.775,0,0,0-.757-.793H235.412A.775.775,0,0,0,234.655,132.448Z"/><path class="cls-13" d="M252.862,134.757v12.831c0,.342.37.619.826.619h1.659c.456,0,.826-.277.826-.619V134.757c0-.342-.37-.619-.826-.619h-1.659C253.232,134.138,252.862,134.415,252.862,134.757Z"/><circle class="cls-14" cx="254.517" cy="135.793" r="0.828"/><circle class="cls-14" cx="254.517" cy="146.552" r="0.828"/><path class="cls-14" d="M254.211,140.554l-6.369-4.246a1.133,1.133,0,0,0-1.429.142h0c-.512.512.409.54,1.02.929l6.854,4.362"/></g></g><g id="Calque_6" data-name="Calque 6"><g id="porte_1-2" data-name="porte_1"><rect class="cls-11" x="244" y="171.333" width="0.63" height="22.667"/><rect class="cls-7" x="244.315" y="171.333" width="0.315" height="22.667"/></g><g id="porte_2-2" data-name="porte_2"><rect class="cls-11" x="244" y="150.48" width="0.63" height="20.853"/><rect class="cls-7" x="244.315" y="150.48" width="0.315" height="20.853"/></g><rect class="cls-11" x="244.63" y="126" width="16.37" height="68"/><g id="porte_3"><rect class="cls-11" x="244" y="137.73" width="0.63" height="12.75"/><rect class="cls-7" x="244.315" y="137.73" width="0.315" height="12.75"/></g><g id="porte_4"><rect class="cls-11" x="244" y="126" width="0.63" height="11.73"/><rect class="cls-7" x="244.315" y="126" width="0.315" height="11.73"/></g></g><g id="Frigo"><rect class="cls-15" x="130.95" y="181.519" width="38.93" height="43.134" transform="translate(-99.548 165.842) rotate(-45)"/><rect class="cls-16" x="135.688" y="199.354" width="1.054" height="35.609" transform="translate(-113.658 159.923) rotate(-45)"/><g id="Porte"><rect class="cls-17" x="164.205" y="166.417" width="2.623" height="43.134" transform="translate(-84.446 172.097) rotate(-45)"/><rect class="cls-18" x="176.697" y="194.139" width="1.141" height="5.87" transform="translate(-87.432 183.069) rotate(-45)"/><rect class="cls-19" x="164.093" y="167.55" width="0.58" height="43.134" transform="translate(-85.579 171.628) rotate(-45)"/></g></g><g id="Calque_1" data-name="Calque 1"><path class="cls-20" d="M378.5.5"/><polygon class="cls-20" points="0.5 0.5 0.5 116.5 5.5 116.5 5.5 44.5 42.5 7.5 380.5 7.5 380.5 0.5 0.5 0.5"/><polygon class="cls-20" points="0.5 166.5 0.5 257.5 385.5 256.5 385.5 238.5 269.5 238.5 269.5 125.5 261.5 125.5 261.5 202.5 225.5 238.5 154.5 238.5 118 202 145.5 174.5 140.5 169.5 65.5 244.5 5.5 184.5 5.5 166.5 0.5 166.5"/><rect class="cls-20" x="385.5" y="238.5" width="25" height="28"/><polygon class="cls-20" points="387.86 238.5 387.86 90.5 405.5 90.5 405.5 98.5 396.5 98.5 396.5 238.5 387.86 238.5"/><polygon class="cls-20" points="425.5 0.5 489.5 0.5 489.5 7.5 466.5 7.5 466.5 90.5 558.5 90.5 558.5 256.5 501.5 256.5 501.5 266.5 490.5 266.5 490.5 256.5 410.5 256.5 410.5 238.5 492.5 238.5 492.5 179.5 497.5 179.5 497.5 238.5 550.5 238.5 550.5 98.5 450.5 98.5 450.5 90.5 458.5 90.5 458.5 7.5 425.5 7.5 425.5 0.5"/></g></svg>